<svg xmlns="http://www.w3.org/2000/svg" width="32.003" height="31.987" viewBox="0 0 32.003 31.987">
  <g id="noun_sun_set_2178981" data-name="noun_sun set_2178981" transform="translate(0.002)">
    <path id="Caminho_1" data-name="Caminho 1" d="M15.983,0a1.143,1.143,0,0,0-1.125,1.142v.017h0V13.245l-2.9-2.895a1.137,1.137,0,0,0-.819-.345h0a1.142,1.142,0,0,0-.8,1.96l4.748,4.748a1.142,1.142,0,0,0,1.808,0l0,0,0,0,4.745-4.745a1.142,1.142,0,1,0-1.616-1.614l-2.9,2.895V1.143A1.142,1.142,0,0,0,16,0H15.98ZM5.492,14.629A1.141,1.141,0,0,0,4.7,16.59h0l3.229,3.229A1.142,1.142,0,1,0,9.542,18.2l-3.23-3.231a1.137,1.137,0,0,0-.819-.345h0Zm20.982,0a1.14,1.14,0,0,0-.785.344h0L22.46,18.2a1.142,1.142,0,1,0,1.614,1.615l3.23-3.23a1.142,1.142,0,0,0-.8-1.961h-.035ZM16,19.426a6.869,6.869,0,0,0-6.851,6.851v.016a1.142,1.142,0,1,0,2.284,0v-.017h0a4.567,4.567,0,0,1,9.134,0v.016a1.142,1.142,0,1,0,2.284,0v-.017h0A6.869,6.869,0,0,0,16,19.426ZM1.156,25.136H1.14a1.142,1.142,0,0,0,0,2.284h4.6a1.142,1.142,0,0,0,0-2.284H1.156Zm25.12,0H26.26a1.142,1.142,0,0,0,0,2.284h4.6a1.142,1.142,0,1,0,0-2.284H26.276ZM1.156,29.7H1.14a1.142,1.142,0,0,0,0,2.284H30.859a1.142,1.142,0,0,0,0-2.284H1.156Z" fill="#fff"/>
  </g>
</svg>
